<svg xmlns="http://www.w3.org/2000/svg" viewBox="0 0 325 325"><defs><style>.cls-1{fill:none;stroke:#000;stroke-miterlimit:10;stroke-width:10px;}.cls-2{fill:#fff;}</style></defs><title>pencil</title><g id="ガイド枠"><rect class="cls-1" x="5" y="5" width="315" height="315"/></g><g id="pencil"><rect class="cls-2" x="154.21" y="222.87" width="192" height="54.16" transform="translate(-186.96 166.64) rotate(-45)"/><path class="cls-2" d="M325.38,149.76l25,25a9.39,9.39,0,0,1,0,13.28l-9.62,9.62-38.3-38.3,9.62-9.62A9.39,9.39,0,0,1,325.38,149.76Z" transform="translate(-83.5 -83.5)"/><path class="cls-2" d="M160.52,301.34l38.33,38.27-47.44,13a3.37,3.37,0,0,1-4.14-4.16Z" transform="translate(-83.5 -83.5)"/><path class="cls-2" d="M150.69,352.17a2.88,2.88,0,0,1-2.28-1.15,2.84,2.84,0,0,1-.47-2.5l4.1-14.58L166.16,348l-14.7,4A2.93,2.93,0,0,1,150.69,352.17Z" transform="translate(-83.5 -83.5)"/><path class="cls-2" d="M152.29,334.89l12.91,12.88-13.87,3.81a2.43,2.43,0,0,1-.64.09,2.38,2.38,0,0,1-1.88-.95,2.31,2.31,0,0,1-.39-2.07l3.87-13.76m-.5-1.91-4.33,15.41a3.37,3.37,0,0,0,3.23,4.29,3.43,3.43,0,0,0,.91-.12l15.53-4.26L151.79,333Z" transform="translate(-83.5 -83.5)"/></g></svg>