<svg xmlns="http://www.w3.org/2000/svg" viewBox="0 0 198.5 78"><defs><style>.cls-1{fill:red;}.cls-2{fill:none;stroke:#fff;stroke-linecap:round;stroke-linejoin:round;stroke-width:3px;}</style></defs><title>アセット 4</title><g id="レイヤー_2" data-name="レイヤー 2"><g id="レイヤー_2-2" data-name="レイヤー 2"><circle class="cls-1" cx="99.25" cy="39" r="39"/><path class="cls-2" d="M1.5,35c2-8,16.5-13.5,17.5-10.5s-8,23-9,24,16-26,20-22-4,17-5,19,14-19,18-17-12,21-7,26"/><path class="cls-2" d="M48,39.53c-2,0-9,7-4,10,2,1,8-8,5-10s1,6,7,0,5-12,7-12-12,16-10,22"/><path class="cls-2" d="M55,35.53c3,1,10-3,10-1s-1,2-1,2"/><path class="cls-2" d="M67,38.53c-2,0-11,5-6,9s9-8,7-9-3,0-2,2,5,1,7,0"/><path class="cls-2" d="M69,35.53c0-3,10-13,16-12s-8,20-8,25"/><path class="cls-2" d="M100,23.53c-1,3-9.54,13.8-18,15,4,6,5,14,11,15,2,1,2,0,2,0"/><path class="cls-2" d="M100,39.53c-2-2-12,5-9,8s11-5,11-9c-1,5-5,11,0,10s8-9,8-10c-2,5-5,11-2,10s8-7,8-9c0,4-1,8,2,9s6-10,4-13"/><path class="cls-2" d="M134,39.53c-4-3-11,5-10,8s13-7,12-9c-3,4-6,10-2,9s10-7,10-11c-2,6-5,12-4,12,2-3,6-11,8-10s1,8,0,10c2-5,7-11,9-9,0,4-3,9,0,9s10-12,14-10c-6,0-14,10-9,10s12-8,12-9c-2,4-7,12,0,8s10-19,14-20c-2,3-11,14-10,22"/><path class="cls-2" d="M179,35.53c1,1,11-4,11,0"/><path class="cls-2" d="M193,39.53c-3-1-8,2-10,8-1,4,10-4,12-8-3,6-4,11,2,6"/></g></g></svg>